Coordinates
version=1
nRows=13
nColumns=40
inDegrees=yes

Units are S.I. units (second, meters, Newtons, ...)
Angles are in degrees.

endheader
time	pelvis_tilt	pelvis_list	pelvis_rotation	pelvis_tx	pelvis_ty	pelvis_tz	hip_flexion_r	hip_adduction_r	hip_rotation_r	knee_angle_r	knee_angle_r_beta	ankle_angle_r	subtalar_angle_r	mtp_angle_r	hip_flexion_l	hip_adduction_l	hip_rotation_l	knee_angle_l	knee_angle_l_beta	ankle_angle_l	subtalar_angle_l	mtp_angle_l	lumbar_extension	lumbar_bending	lumbar_rotation	arm_flex_r	arm_add_r	arm_rot_r	elbow_flex_r	pro_sup_r	wrist_flex_r	wrist_dev_r	arm_flex_l	arm_add_l	arm_rot_l	elbow_flex_l	pro_sup_l	wrist_flex_l	wrist_dev_l
     30.47500000	     -7.68211081	     -5.48745177	     -1.35404435	      0.77513723	      0.92062929	      0.34791216	     29.75071036	     -5.15540635	     -5.14792152	     62.12906265	     62.12906265	      1.17302896	    -17.31028382	      3.27992214	     18.91094631	     -4.72838762	     -2.89403329	     28.30516238	     28.30516238	     19.08260448	    -12.59330142	      6.40076450	    -12.01589312	      6.90840495	      4.26551458	     -8.36342489	    -12.05029188	    -13.32552600	     25.52806349	     46.45272268	      0.00000000	      0.00000000	      9.89150117	    -17.07284772	     -6.83679403	     66.02303507	     48.32836120	      0.00000000	      0.00000000
     30.49007143	     -7.90542493	     -5.63422131	     -2.04380909	      0.77377000	      0.92241417	      0.34850511	     30.49724300	     -4.42430851	     -5.36419316	     59.94318013	     59.94318013	      2.27933960	    -16.73255195	      2.84510243	     18.30684430	     -5.04555769	     -3.51770678	     27.34402513	     27.34402513	     18.91024962	    -12.42881128	      6.63440949	    -12.03509435	      7.00606032	      4.17750463	     -9.00591043	    -12.09770157	    -13.40432613	     25.68637147	     46.44553803	      0.00000000	      0.00000000	     10.82594209	    -17.25739177	     -7.34306395	     67.32505503	     48.38653650	      0.00000000	      0.00000000
     30.50514286	     -8.14268216	     -5.72851837	     -2.82768427	      0.77240530	      0.92404505	      0.34934875	     31.02558398	     -3.68075716	     -5.52203121	     57.04002202	     57.04002202	      2.91344200	    -16.11432502	      0.74167260	     17.72707935	     -5.35336981	     -4.28171641	     26.44514553	     26.44514553	     18.66173096	    -12.20945477	      6.56756207	    -12.16744418	      6.98409939	      3.88818906	     -9.91435428	    -12.14506363	    -13.78507791	     27.72409160	     46.37179488	      0.00000000	      0.00000000	     10.90107189	    -17.38717918	     -9.17856362	     70.68338081	     48.53652127	      0.00000000	      0.00000000
     30.52021429	     -8.37991640	     -5.77725347	     -3.62891772	      0.77117053	      0.92566544	      0.35031954	     31.30808947	     -2.97571166	     -5.70831155	     53.51086558	     53.51086558	      3.61009292	    -15.11839348	     -1.04985843	     17.09394562	     -5.57929321	     -4.99070366	     25.46372938	     25.46372938	     18.42074616	    -12.09507503	      6.68394828	    -12.21310380	      6.93800563	      3.89536186	    -10.50845683	    -12.26965588	    -13.77240063	     28.64156018	     46.32162182	      0.00000000	      0.00000000	     11.60591198	    -17.47746633	    -10.13997612	     72.56645065	     48.60884961	      0.00000000	      0.00000000
     30.53528571	     -8.59259126	     -5.85921324	     -4.38600341	      0.76995907	      0.92712065	      0.35139964	     31.35237852	     -2.18609358	     -5.85206406	     49.49907466	     49.49907466	      4.59152654	    -13.74877602	     -1.51329546	     16.49635606	     -5.82221750	     -5.59084116	     24.60496762	     24.60496762	     18.24496162	    -12.01322956	      6.90762707	    -12.26015305	      6.97824915	      3.86789283	    -10.73214541	    -12.41641148	    -13.79856799	     28.96556008	     46.30668423	      0.00000000	      0.00000000	     12.50700420	    -17.77779395	    -10.51995575	     73.63920695	     48.65290752	      0.00000000	      0.00000000
     30.55035714	     -8.79867620	     -5.88702880	     -5.16777616	      0.76884750	      0.92821620	      0.35265248	     31.16433487	     -1.51138768	     -6.12780653	     45.04684282	     45.04684282	      5.32674908	    -11.94109764	     -2.33513183	     15.89842856	     -6.03506545	     -6.34171117	     23.79182623	     23.79182623	     18.13436820	    -11.87769430	      7.00495093	    -12.30808117	      6.88341683	      3.97862856	    -11.05412247	    -12.53546793	    -13.89739454	     29.87004050	     46.26972932	      0.00000000	      0.00000000	     13.24706238	    -17.98934087	    -11.19692107	     75.47661557	     48.72576654	      0.00000000	      0.00000000
     30.56542857	     -9.29484278	     -5.92026475	     -5.87366277	      0.76754786	      0.92852100	      0.35404190	     31.13483900	     -0.70667394	     -6.21383559	     40.31493405	     40.31493405	      5.86382855	    -10.28688518	     -2.29905902	     15.75042729	     -6.25494568	     -6.85774914	     23.17832557	     23.17832557	     18.04467946	    -11.87682955	      7.09697308	    -11.95511812	      6.86803010	      3.92292643	    -11.10753384	    -12.59792419	    -13.94885053	     30.35545418	     46.25113948	      0.00000000	      0.00000000	     14.05087655	    -18.34440792	    -11.54446685	     76.47909188	     48.76907439	      0.00000000	      0.00000000
     30.58050000	     -9.40982804	     -5.85283716	     -6.47431610	      0.76666179	      0.92879417	      0.35520738	     30.42763246	     -0.23323418	     -6.62936227	     35.26583152	     35.26583152	      5.87883604	     -7.73235351	     -3.67540623	     15.24055815	     -6.35057648	     -7.57613105	     22.69406178	     22.69406178	     18.01217121	    -11.60808834	      6.65047308	    -12.11635188	      6.74865904	      3.59194919	    -11.79652050	    -12.79497360	    -14.15507149	     33.38302284	     46.12450134	      0.00000000	      0.00000000	     13.98176498	    -18.45144497	    -13.05874885	     79.65669291	     48.89673041	      0.00000000	      0.00000000
     30.59557143	     -9.72476486	     -5.78511640	     -6.98972240	      0.76564923	      0.92842076	      0.35660204	     29.89130216	      0.41047458	     -6.62957640	     30.31278207	     30.31278207	      5.93878599	     -5.65097259	     -3.05720046	     15.03356843	     -6.42137517	     -7.98582570	     22.31992292	     22.31992292	     18.07609696	    -11.64846547	      6.58453336	    -11.88295568	      6.65767484	      3.54836589	    -11.69483893	    -12.83053348	    -14.10442210	     33.77913598	     46.10481351	      0.00000000	      0.00000000	     14.95391534	    -18.74075761	    -13.25707431	     80.41219816	     48.92519949	      0.00000000	      0.00000000
     30.61064286	     -9.81790753	     -5.61180685	     -7.40790725	      0.76498988	      0.92780276	      0.35782536	     29.09670366	      0.68408980	     -7.12270337	     25.68991113	     25.68991113	      6.04727721	     -2.27819596	     -2.16203077	     14.60821557	     -6.37792251	     -8.57385349	     22.00383773	     22.00383773	     18.20421488	    -11.35605076	      6.06050934	    -11.91474464	      6.44417625	      3.50097385	    -11.90467868	    -12.96997717	    -13.99418453	     35.19183419	     46.03550046	      0.00000000	      0.00000000	     15.69565661	    -18.83490553	    -13.76212282	     81.93894039	     48.97227951	      0.00000000	      0.00000000
     30.62571429	     -9.95338591	     -5.44089709	     -7.71314090	      0.76439674	      0.92677570	      0.35914702	     28.36271719	      1.04404855	     -7.19404582	     21.42970547	     21.42970547	      5.78667431	      0.18457244	     -0.85465044	     14.32148569	     -6.29815601	     -8.89045897	     21.82924205	     21.82924205	     18.41024509	    -11.33198089	      5.70100044	    -11.78818284	      6.27212643	      3.40291865	    -11.77409447	    -13.04955424	    -13.91699765	     35.90192843	     46.00192120	      0.00000000	      0.00000000	     16.57965036	    -19.01649401	    -13.95917490	     82.78337593	     48.99720952	      0.00000000	      0.00000000
     30.64078571	    -10.14579988	     -5.16943800	     -7.91133284	      0.76394109	      0.92535597	      0.36041794	     27.84234324	      1.20455839	     -7.28105172	     17.86964974	     17.86964974	      5.33003342	      2.48386990	      0.42814331	     14.11682122	     -6.09970056	     -9.16473981	     21.65151873	     21.65151873	     18.65543537	    -11.22977035	      5.34292953	    -11.53675946	      6.02244427	      3.28280929	    -11.59036303	    -13.01364166	    -13.85047923	     36.43399138	     45.97699676	      0.00000000	      0.00000000	     17.44347679	    -19.10168766	    -14.07325303	     83.48999970	     49.01737021	      0.00000000	      0.00000000
     30.65585714	    -10.17433768	     -4.86331621	     -8.03280748	      0.76376820	      0.92397872	      0.36161889	     27.32692295	      1.17966522	     -7.56785731	     15.14861507	     15.14861507	      4.92763920	      4.84372953	      1.79371521	     13.72546747	     -5.83336119	     -9.45301896	     21.46553616	     21.46553616	     18.93640759	    -11.03775961	      4.85663116	    -11.45375666	      5.76629070	      3.18051198	    -11.34186953	    -13.09501545	    -13.78028830	     37.03229531	     45.95010594	      0.00000000	      0.00000000	     18.32944426	    -19.09294614	    -14.20144805	     84.16294906	     49.03613201	      0.00000000	      0.00000000
